<svg xmlns="http://www.w3.org/2000/svg" xmlns:xlink="http://www.w3.org/1999/xlink" width="1920" height="531.001" viewBox="0 0 1920 531.001"><defs><style>.a{fill:none;}.b{fill:rgba(238,238,238,0.41);}.c{fill:#9be5fa;}.c,.d{opacity:0.6;}.d,.n{fill:#ff6e4e;}.e{clip-path:url(#a);}.f{fill:#38ccf5;opacity:0.5;}.g{fill:#2196f3;}.h{fill:#fafafa;}.i{fill:#fcbc03;}.j{fill:url(#f);}.k{fill:url(#g);}.l{fill:#bc2f9e;}.m,.n{stroke:none;}.o{filter:url(#d);}.p{filter:url(#b);}</style><clipPath id="a"><rect class="a" width="230" height="165"/></clipPath><filter id="b" x="1525.702" y="141.702" width="59.248" height="59.248" filterUnits="userSpaceOnUse"><feOffset dy="3" input="SourceAlpha"/><feGaussianBlur stdDeviation="3" result="c"/><feFlood flood-color="#2196f3" flood-opacity="0.161"/><feComposite operator="in" in2="c"/><feComposite in="SourceGraphic"/></filter><filter id="d" x="1650.324" y="312.735" width="55.07" height="55.07" filterUnits="userSpaceOnUse"><feOffset dy="3" input="SourceAlpha"/><feGaussianBlur stdDeviation="3" result="e"/><feFlood flood-color="#fcbc03" flood-opacity="0.161"/><feComposite operator="in" in2="e"/><feComposite in="SourceGraphic"/></filter><linearGradient id="f" x1="0.097" y1="0.92" x2="0.246" y2="-0.115" gradientUnits="objectBoundingBox"><stop offset="0" stop-color="#fdd77a"/><stop offset="0.189" stop-color="#f66f2e"/><stop offset="0.424" stop-color="#d12f83"/><stop offset="0.652" stop-color="#a335b4"/><stop offset="1" stop-color="#505dce"/></linearGradient><linearGradient id="g" x1="-0.189" y1="1.692" x2="1.465" y2="-0.796" gradientUnits="objectBoundingBox"><stop offset="0" stop-color="#fdd77a"/><stop offset="0.3" stop-color="#f66f2e"/><stop offset="0.515" stop-color="#d12f83"/><stop offset="0.782" stop-color="#a335b4"/><stop offset="1" stop-color="#505dce"/></linearGradient></defs><g transform="translate(0 -1077)"><path class="b" d="M0,0H1920V531H0Z" transform="translate(0 1077)"/><path class="c" d="M-3357.5,13744c-2.145,0-4.331-.024-6.5-.072v-530.854c2.185-.048,4.371-.072,6.5-.072a289.656,289.656,0,0,1,55.725,5.395,283.477,283.477,0,0,1,51.9,15.47,280.334,280.334,0,0,1,46.968,24.479,276.372,276.372,0,0,1,40.921,32.42,270.091,270.091,0,0,1,33.763,39.293,262.369,262.369,0,0,1,25.493,45.1,256.527,256.527,0,0,1,16.111,49.836A257.209,257.209,0,0,1-3081,13478.5a257.212,257.212,0,0,1-5.617,53.508,256.519,256.519,0,0,1-16.111,49.837,262.369,262.369,0,0,1-25.493,45.1,270.114,270.114,0,0,1-33.763,39.294,276.458,276.458,0,0,1-40.921,32.42,280.334,280.334,0,0,1-46.968,24.479,283.488,283.488,0,0,1-51.9,15.471A289.675,289.675,0,0,1-3357.5,13744Z" transform="translate(3364 -12136)"/><g class="d" transform="translate(5222.926 -12426)"><path class="m" d="M -3361.426513671875 13726.736328125 C -3378.3330078125 13726.736328125 -3395.2685546875 13725.244140625 -3411.762451171875 13722.30078125 C -3427.84619140625 13719.427734375 -3443.75 13715.1318359375 -3459.03173828125 13709.5302734375 C -3474.034423828125 13704.0263671875 -3488.630859375 13697.19140625 -3502.4150390625 13689.2158203125 C -3516.037353515625 13681.3388671875 -3529.047119140625 13672.23828125 -3541.083984375 13662.166015625 C -3553.075439453125 13652.1298828125 -3564.22021484375 13641.029296875 -3574.208984375 13629.1728515625 C -3584.25830078125 13617.2421875 -3593.25830078125 13604.4130859375 -3600.95947265625 13591.0400390625 C -3608.761474609375 13577.49609375 -3615.33837890625 13563.20703125 -3620.508056640625 13548.5693359375 C -3625.387939453125 13534.75 -3629.074951171875 13520.4462890625 -3631.4833984375 13506 L -3305.92626953125 13506 L -3305.92626953125 13721.328125 C -3306.043701171875 13721.3505859375 -3306.160888671875 13721.3740234375 -3306.27783203125 13721.396484375 C -3324.312255859375 13724.9404296875 -3342.8662109375 13726.736328125 -3361.426513671875 13726.736328125 Z"/><path class="n" d="M -3361.426513671875 13723.736328125 C -3343.769287109375 13723.736328125 -3326.11962890625 13722.09375 -3308.92626953125 13718.8515625 L -3308.92626953125 13509 L -3627.916259765625 13509 C -3625.541748046875 13522.0859375 -3622.107421875 13535.0302734375 -3617.679443359375 13547.5703125 C -3612.570556640625 13562.03515625 -3606.070556640625 13576.1572265625 -3598.359619140625 13589.54296875 C -3590.746826171875 13602.7626953125 -3581.849365234375 13615.4453125 -3571.914794921875 13627.2392578125 C -3562.037841796875 13638.9638671875 -3551.016845703125 13649.9404296875 -3539.158935546875 13659.865234375 C -3527.25390625 13669.8271484375 -3514.386474609375 13678.828125 -3500.91259765625 13686.619140625 C -3487.278076171875 13694.5078125 -3472.83935546875 13701.2685546875 -3457.999267578125 13706.712890625 C -3442.881103515625 13712.2548828125 -3427.147216796875 13716.505859375 -3411.235595703125 13719.34765625 C -3394.9150390625 13722.259765625 -3378.15673828125 13723.736328125 -3361.426513671875 13723.736328125 M -3361.426513671875 13729.736328125 C -3378.507568359375 13729.736328125 -3395.620361328125 13728.228515625 -3412.28955078125 13725.25390625 C -3428.5458984375 13722.3505859375 -3444.61962890625 13718.0078125 -3460.064208984375 13712.3466796875 C -3475.23193359375 13706.7822265625 -3489.986328125 13699.873046875 -3503.91748046875 13691.8125 C -3517.691162109375 13683.84765625 -3530.843505859375 13674.646484375 -3543.00927734375 13664.466796875 C -3555.134521484375 13654.318359375 -3566.403564453125 13643.09375 -3576.50341796875 13631.10546875 C -3586.66748046875 13619.0390625 -3595.770263671875 13606.0625 -3603.55908203125 13592.537109375 C -3611.4521484375 13578.8349609375 -3618.1064453125 13564.3779296875 -3623.3369140625 13549.568359375 C -3628.667724609375 13534.4716796875 -3632.591796875 13518.8037109375 -3635 13503 L -3302.92626953125 13503 L -3302.92626953125 13723.78125 C -3303.931396484375 13723.9892578125 -3304.8388671875 13724.171875 -3305.700927734375 13724.3408203125 C -3323.923095703125 13727.9208984375 -3342.671875 13729.736328125 -3361.426513671875 13729.736328125 Z"/></g><g class="e" transform="translate(168 1350)"><g transform="translate(-158 -154)"><circle class="f" cx="5" cy="5" r="5" transform="translate(158 154)"/></g><g transform="translate(-128 -154)"><circle class="f" cx="5" cy="5" r="5" transform="translate(158 154)"/></g><g transform="translate(-98 -154)"><circle class="f" cx="5" cy="5" r="5" transform="translate(158 154)"/></g><g transform="translate(-68 -154)"><circle class="f" cx="5" cy="5" r="5" transform="translate(158 154)"/></g><g transform="translate(-38 -154)"><circle class="f" cx="5" cy="5" r="5" transform="translate(158 154)"/></g><g transform="translate(-8 -154)"><circle class="f" cx="5" cy="5" r="5" transform="translate(158 154)"/></g><g transform="translate(22 -154)"><circle class="f" cx="5" cy="5" r="5" transform="translate(158 154)"/></g><g transform="translate(52 -154)"><circle class="f" cx="5" cy="5" r="5" transform="translate(158 154)"/></g><g transform="translate(-158 -124)"><circle class="f" cx="5" cy="5" r="5" transform="translate(158 154)"/></g><g transform="translate(-128 -124)"><circle class="f" cx="5" cy="5" r="5" transform="translate(158 154)"/></g><g transform="translate(-98 -124)"><circle class="f" cx="5" cy="5" r="5" transform="translate(158 154)"/></g><g transform="translate(-68 -124)"><circle class="f" cx="5" cy="5" r="5" transform="translate(158 154)"/></g><g transform="translate(-38 -124)"><circle class="f" cx="5" cy="5" r="5" transform="translate(158 154)"/></g><g transform="translate(-8 -124)"><circle class="f" cx="5" cy="5" r="5" transform="translate(158 154)"/></g><g transform="translate(22 -124)"><circle class="f" cx="5" cy="5" r="5" transform="translate(158 154)"/></g><g transform="translate(52 -124)"><circle class="f" cx="5" cy="5" r="5" transform="translate(158 154)"/></g><g transform="translate(-158 -94)"><circle class="f" cx="5" cy="5" r="5" transform="translate(158 154)"/></g><g transform="translate(-128 -94)"><circle class="f" cx="5" cy="5" r="5" transform="translate(158 154)"/></g><g transform="translate(-98 -94)"><circle class="f" cx="5" cy="5" r="5" transform="translate(158 154)"/></g><g transform="translate(-68 -94)"><circle class="f" cx="5" cy="5" r="5" transform="translate(158 154)"/></g><g transform="translate(-38 -94)"><circle class="f" cx="5" cy="5" r="5" transform="translate(158 154)"/></g><g transform="translate(-8 -94)"><circle class="f" cx="5" cy="5" r="5" transform="translate(158 154)"/></g><g transform="translate(22 -94)"><circle class="f" cx="5" cy="5" r="5" transform="translate(158 154)"/></g><g transform="translate(52 -94)"><circle class="f" cx="5" cy="5" r="5" transform="translate(158 154)"/></g><g transform="translate(-158 -64)"><circle class="f" cx="5" cy="5" r="5" transform="translate(158 154)"/></g><g transform="translate(-128 -64)"><circle class="f" cx="5" cy="5" r="5" transform="translate(158 154)"/></g><g transform="translate(-98 -64)"><circle class="f" cx="5" cy="5" r="5" transform="translate(158 154)"/></g><g transform="translate(-68 -64)"><circle class="f" cx="5" cy="5" r="5" transform="translate(158 154)"/></g><g transform="translate(-38 -64)"><circle class="f" cx="5" cy="5" r="5" transform="translate(158 154)"/></g><g transform="translate(-8 -64)"><circle class="f" cx="5" cy="5" r="5" transform="translate(158 154)"/></g><g transform="translate(22 -64)"><circle class="f" cx="5" cy="5" r="5" transform="translate(158 154)"/></g><g transform="translate(52 -64)"><circle class="f" cx="5" cy="5" r="5" transform="translate(158 154)"/></g><g transform="translate(-158 -34)"><circle class="f" cx="5" cy="5" r="5" transform="translate(158 154)"/></g><g transform="translate(-128 -34)"><circle class="f" cx="5" cy="5" r="5" transform="translate(158 154)"/></g><g transform="translate(-98 -34)"><circle class="f" cx="5" cy="5" r="5" transform="translate(158 154)"/></g><g transform="translate(-68 -34)"><circle class="f" cx="5" cy="5" r="5" transform="translate(158 154)"/></g><g transform="translate(-38 -34)"><circle class="f" cx="5" cy="5" r="5" transform="translate(158 154)"/></g><g transform="translate(-8 -34)"><circle class="f" cx="5" cy="5" r="5" transform="translate(158 154)"/></g><g transform="translate(22 -34)"><circle class="f" cx="5" cy="5" r="5" transform="translate(158 154)"/></g><g transform="translate(52 -34)"><circle class="f" cx="5" cy="5" r="5" transform="translate(158 154)"/></g><g transform="translate(-158 -4)"><circle class="f" cx="5" cy="5" r="5" transform="translate(158 154)"/></g><g transform="translate(-128 -4)"><circle class="f" cx="5" cy="5" r="5" transform="translate(158 154)"/></g><g transform="translate(-98 -4)"><circle class="f" cx="5" cy="5" r="5" transform="translate(158 154)"/></g><g transform="translate(-68 -4)"><circle class="f" cx="5" cy="5" r="5" transform="translate(158 154)"/></g><g transform="translate(-38 -4)"><circle class="f" cx="5" cy="5" r="5" transform="translate(158 154)"/></g><g transform="translate(-8 -4)"><circle class="f" cx="5" cy="5" r="5" transform="translate(158 154)"/></g><g transform="translate(22 -4)"><circle class="f" cx="5" cy="5" r="5" transform="translate(158 154)"/></g><g transform="translate(52 -4)"><circle class="f" cx="5" cy="5" r="5" transform="translate(158 154)"/></g></g><path class="f" d="M-3382.5,13186h-7.16a5.023,5.023,0,0,1,3.585-1.511,5.011,5.011,0,0,1,2.5.671,4.991,4.991,0,0,1,1.077.838Zm-65.569,0h-9.945a4.968,4.968,0,0,1,.644-3.03,5.018,5.018,0,0,1,4.335-2.5,5.011,5.011,0,0,1,2.5.671,5.008,5.008,0,0,1,2.469,4.858Zm-69.854,0h-4.159c-.149-.068-.291-.141-.422-.216a4.966,4.966,0,0,1-2.327-3.036,4.97,4.97,0,0,1,.5-3.795,5.015,5.015,0,0,1,4.335-2.5,4.96,4.96,0,0,1,2.493.674,4.977,4.977,0,0,1,2.333,3.033,4.956,4.956,0,0,1-.5,3.794,4.975,4.975,0,0,1-2.25,2.049Zm172.819-2.49a5.009,5.009,0,0,1-2.5-.67,4.964,4.964,0,0,1-2.327-3.037,4.959,4.959,0,0,1,.5-3.794,5.02,5.02,0,0,1,4.335-2.5,5.011,5.011,0,0,1,2.5.671,4.962,4.962,0,0,1,2.326,3.035,4.968,4.968,0,0,1-.5,3.793A5.016,5.016,0,0,1-3345.1,13183.511Zm-66.96-4.02a5.008,5.008,0,0,1-2.5-.67,5,5,0,0,1-1.829-6.828,5.015,5.015,0,0,1,4.335-2.5,4.987,4.987,0,0,1,2.493.671,4.96,4.96,0,0,1,2.329,3.036,4.97,4.97,0,0,1-.5,3.795A5.013,5.013,0,0,1-3412.064,13179.491Zm-66.96-4.02a5.007,5.007,0,0,1-2.5-.67,4.961,4.961,0,0,1-2.33-3.037,4.962,4.962,0,0,1,.5-3.791,5.023,5.023,0,0,1,4.335-2.5,5.011,5.011,0,0,1,2.5.671,4.972,4.972,0,0,1,2.328,3.039,4.959,4.959,0,0,1-.5,3.792A5.015,5.015,0,0,1-3479.024,13175.472Zm174.455-2.961h0a5.014,5.014,0,0,1-2.047-.653,4.954,4.954,0,0,1-2.33-3.034,4.952,4.952,0,0,1,.5-3.79,5,5,0,0,1,3.877-2.482v9.959Zm-66.515-4a5.011,5.011,0,0,1-2.5-.671,5.008,5.008,0,0,1-1.829-6.831,5.013,5.013,0,0,1,4.335-2.5,5.012,5.012,0,0,1,2.5.671,5.009,5.009,0,0,1,1.829,6.831A5.02,5.02,0,0,1-3371.084,13168.512Zm-66.96-4.021a5.008,5.008,0,0,1-2.5-.67,4.966,4.966,0,0,1-2.33-3.034,4.979,4.979,0,0,1,.5-3.8,5.027,5.027,0,0,1,4.335-2.5,5.012,5.012,0,0,1,2.5.671,4.964,4.964,0,0,1,2.328,3.035,4.973,4.973,0,0,1-.5,3.8A5.021,5.021,0,0,1-3438.044,13164.491Zm-66.963-4.02a5,5,0,0,1-2.493-.67,4.964,4.964,0,0,1-2.328-3.035,4.973,4.973,0,0,1,.5-3.8,5.028,5.028,0,0,1,4.335-2.5,5.012,5.012,0,0,1,2.5.671,4.981,4.981,0,0,1,2.33,3.037,4.972,4.972,0,0,1-.5,3.794A5.016,5.016,0,0,1-3505.007,13160.472Zm174.9-2.94a5.008,5.008,0,0,1-2.493-.671,4.966,4.966,0,0,1-2.33-3.037,4.968,4.968,0,0,1,.5-3.794,5.023,5.023,0,0,1,4.335-2.5,5.009,5.009,0,0,1,2.5.67,4.969,4.969,0,0,1,2.33,3.037,4.961,4.961,0,0,1-.5,3.791A5.016,5.016,0,0,1-3330.1,13157.531Zm-66.96-4.02a5.013,5.013,0,0,1-2.5-.671,4.959,4.959,0,0,1-2.326-3.036,4.962,4.962,0,0,1,.5-3.791,5.016,5.016,0,0,1,4.335-2.5,5,5,0,0,1,2.493.67,4.981,4.981,0,0,1,2.33,3.037,4.958,4.958,0,0,1-.5,3.791A5.016,5.016,0,0,1-3397.064,13153.512Zm-66.96-4.02a5.012,5.012,0,0,1-2.5-.671,4.959,4.959,0,0,1-2.33-3.034,4.969,4.969,0,0,1,.5-3.794,5.025,5.025,0,0,1,4.335-2.5,5.011,5.011,0,0,1,2.5.671,4.964,4.964,0,0,1,2.327,3.037,4.967,4.967,0,0,1-.495,3.794A5.027,5.027,0,0,1-3464.024,13149.492Zm107.94-6.961a4.987,4.987,0,0,1-2.493-.671,5.008,5.008,0,0,1-1.832-6.831,5.022,5.022,0,0,1,4.335-2.5,4.97,4.97,0,0,1,2.5.67,5.01,5.01,0,0,1,1.829,6.832A5.019,5.019,0,0,1-3356.084,13142.531Zm-66.963-4.02a5.006,5.006,0,0,1-2.493-.671,4.962,4.962,0,0,1-2.327-3.036,4.965,4.965,0,0,1,.5-3.795,5.017,5.017,0,0,1,4.335-2.5,5,5,0,0,1,2.493.67,4.961,4.961,0,0,1,2.33,3.037,4.947,4.947,0,0,1-.5,3.791A5.015,5.015,0,0,1-3423.047,13138.512Zm-66.96-4.02a5.012,5.012,0,0,1-2.5-.671,5.007,5.007,0,0,1-1.829-6.831,5.027,5.027,0,0,1,4.335-2.5,5.007,5.007,0,0,1,2.5.67,5.006,5.006,0,0,1,1.829,6.831A5.019,5.019,0,0,1-3490.007,13134.492Zm174.9-2.941a5.026,5.026,0,0,1-2.5-.67,5.008,5.008,0,0,1-1.829-6.831,5.013,5.013,0,0,1,4.335-2.5,5.006,5.006,0,0,1,2.5.667,4.973,4.973,0,0,1,2.327,3.039,4.955,4.955,0,0,1-.5,3.792A5.015,5.015,0,0,1-3315.1,13131.551Zm-66.96-4.02a5.011,5.011,0,0,1-2.5-.671,4.969,4.969,0,0,1-2.327-3.037,4.968,4.968,0,0,1,.5-3.794,5.016,5.016,0,0,1,4.335-2.5,4.96,4.96,0,0,1,2.493.674,4.955,4.955,0,0,1,2.33,3.033,4.951,4.951,0,0,1-.5,3.794A5.015,5.015,0,0,1-3382.064,13127.531Zm-66.96-4.02a5.011,5.011,0,0,1-2.5-.671,5.01,5.01,0,0,1-1.832-6.831,5.022,5.022,0,0,1,4.335-2.5,5.008,5.008,0,0,1,2.5.67,4.973,4.973,0,0,1,2.327,3.038,4.958,4.958,0,0,1-.5,3.79A5.012,5.012,0,0,1-3449.024,13123.512Zm107.94-6.964a5.007,5.007,0,0,1-2.493-.671,4.977,4.977,0,0,1-2.333-3.033,4.971,4.971,0,0,1,.5-3.794,5.014,5.014,0,0,1,4.335-2.5,5.009,5.009,0,0,1,2.5.67,4.976,4.976,0,0,1,2.328,3.04,4.96,4.96,0,0,1-.5,3.792A5.015,5.015,0,0,1-3341.084,13116.548Zm-66.96-4.02a5.006,5.006,0,0,1-2.5-.667,5.009,5.009,0,0,1-1.833-6.831,5.025,5.025,0,0,1,4.338-2.5,5,5,0,0,1,2.493.667,5.008,5.008,0,0,1,1.832,6.831A5.022,5.022,0,0,1-3408.044,13112.528Zm-66.963-4.017a4.987,4.987,0,0,1-2.493-.671,5.009,5.009,0,0,1-1.832-6.831,5.023,5.023,0,0,1,4.335-2.5,4.985,4.985,0,0,1,2.5.671,4.981,4.981,0,0,1,2.33,3.037,4.976,4.976,0,0,1-.5,3.794A5.019,5.019,0,0,1-3475.007,13108.512Zm107.943-6.961a4.976,4.976,0,0,1-2.5-.674,4.952,4.952,0,0,1-2.325-3.029,4.968,4.968,0,0,1,.5-3.8,5.014,5.014,0,0,1,4.335-2.5,5,5,0,0,1,2.5.671,5.01,5.01,0,0,1,1.829,6.832A5.019,5.019,0,0,1-3367.064,13101.551Zm-66.96-4.02a4.985,4.985,0,0,1-2.5-.674,4.961,4.961,0,0,1-2.328-3.037,4.96,4.96,0,0,1,.5-3.79,5.012,5.012,0,0,1,4.332-2.5,4.983,4.983,0,0,1,2.5.671,4.955,4.955,0,0,1,2.33,3.034,4.968,4.968,0,0,1-.5,3.794A5.025,5.025,0,0,1-3434.024,13097.531Zm40.98-10.983a4.97,4.97,0,0,1-2.5-.67,4.97,4.97,0,0,1-2.33-3.034,4.956,4.956,0,0,1,.5-3.794,5.015,5.015,0,0,1,4.335-2.5,5.012,5.012,0,0,1,2.5.671,4.957,4.957,0,0,1,2.325,3.035,4.967,4.967,0,0,1-.5,3.8A5.012,5.012,0,0,1-3393.044,13086.548Zm-66.963-4.017a4.993,4.993,0,0,1-2.5-.674,4.961,4.961,0,0,1-2.324-3.035,4.96,4.96,0,0,1,.5-3.792,5,5,0,0,1,4.332-2.5,5.011,5.011,0,0,1,2.5.668,4.978,4.978,0,0,1,2.33,3.037,4.966,4.966,0,0,1-.5,3.8A5.018,5.018,0,0,1-3460.008,13082.531Zm40.983-10.979a4.985,4.985,0,0,1-2.5-.674,4.959,4.959,0,0,1-2.33-3.034,4.967,4.967,0,0,1,.5-3.794,5.024,5.024,0,0,1,4.335-2.5,4.985,4.985,0,0,1,2.5.674,4.954,4.954,0,0,1,2.33,3.034,4.956,4.956,0,0,1-.5,3.794A5.013,5.013,0,0,1-3419.024,13071.552Zm-25.98-15a4.972,4.972,0,0,1-2.5-.67,4.947,4.947,0,0,1-2.327-3.037,4.945,4.945,0,0,1,.494-3.79,5.024,5.024,0,0,1,4.335-2.5,5.011,5.011,0,0,1,2.5.671,4.982,4.982,0,0,1,2.33,3.037,4.971,4.971,0,0,1-.5,3.8A5.014,5.014,0,0,1-3445,13056.548Z" transform="translate(5224.568 -11578)"/><g transform="translate(1543.894 1224.702) rotate(16)"><g class="p" transform="matrix(0.96, -0.28, 0.28, 0.96, -1524.8, 283.57)"><path class="g" d="M3.474,0h26.4a3.474,3.474,0,0,1,3.474,3.474v26.4a3.474,3.474,0,0,1-3.474,3.474H3.474A3.474,3.474,0,0,1,0,29.874V3.474A3.474,3.474,0,0,1,3.474,0Z" transform="translate(1543.89 147.7) rotate(16)"/></g><path class="h" d="M225.144,69.558h2.779a.7.7,0,0,0,.695-.695V64.695a.7.7,0,0,0-.695-.695h-2.779a7.642,7.642,0,0,0-7.642,7.642v3.474h-3.474a.7.7,0,0,0-.695.695v4.169a.7.7,0,0,0,.695.695H217.5V93.18h5.558V80.674h3.474a.7.7,0,0,0,.659-.475l1.389-4.169a.695.695,0,0,0-.659-.914H223.06V71.642A2.084,2.084,0,0,1,225.144,69.558Z" transform="translate(-199.438 -59.831)"/></g><g transform="matrix(0.966, -0.259, 0.259, 0.966, 1634.478, 1310.84)"><g transform="translate(0 96)"><g class="o" transform="matrix(0.97, 0.26, -0.26, 0.97, -1518.26, -744.91)"><path class="i" d="M15.134,108.107v6.053H23.7a9.081,9.081,0,1,1-8.563-12.107,8.946,8.946,0,0,1,5.881,2.191l3.977-4.564A15,15,0,0,0,15.134,96a15.134,15.134,0,1,0,15.134,15.134v-3.027Z" transform="matrix(0.97, -0.26, 0.26, 0.97, 1634.48, 233.84)"/></g></g></g><g transform="translate(1411.723 1453.145) rotate(-23)"><path class="j" d="M582.257,244.808H568.051a10.482,10.482,0,0,0-10.472,10.472v14.207a10.484,10.484,0,0,0,10.472,10.472h14.206a10.486,10.486,0,0,0,10.472-10.472V255.28A10.484,10.484,0,0,0,582.257,244.808Zm6.936,24.679a6.936,6.936,0,0,1-6.936,6.936H568.051a6.936,6.936,0,0,1-6.936-6.936V255.28a6.935,6.935,0,0,1,6.936-6.936h14.206a6.935,6.935,0,0,1,6.936,6.936Z" transform="translate(-557.579 -244.808)"/><path class="k" d="M572.7,250.835a9.091,9.091,0,1,0,9.091,9.091A9.09,9.09,0,0,0,572.7,250.835Zm0,14.64a5.555,5.555,0,1,1,5.555-5.555A5.555,5.555,0,0,1,572.7,265.475Z" transform="translate(-555.122 -242.351)"/><path class="l" d="M577.165,249.336a2.178,2.178,0,1,0,2.178,2.178A2.176,2.176,0,0,0,577.165,249.336Z" transform="translate(-550.482 -242.962)"/></g></g></svg>