<svg xmlns="http://www.w3.org/2000/svg" xmlns:xlink="http://www.w3.org/1999/xlink" width="140" height="141" viewBox="0 0 140 141"><defs><style>.a{fill:none;}.b{clip-path:url(#a);}.c{fill:#ff6e4e;opacity:0.5;}</style><clipPath id="a"><rect class="a" width="140" height="141"/></clipPath></defs><g class="b"><g transform="translate(-158 -154)"><circle class="c" cx="5" cy="5" r="5" transform="translate(158 154)"/></g><g transform="translate(-128 -154)"><circle class="c" cx="5" cy="5" r="5" transform="translate(158 154)"/></g><g transform="translate(-98 -154)"><circle class="c" cx="5" cy="5" r="5" transform="translate(158 154)"/></g><g transform="translate(-68 -154)"><circle class="c" cx="5" cy="5" r="5" transform="translate(158 154)"/></g><g transform="translate(-38 -154)"><circle class="c" cx="5" cy="5" r="5" transform="translate(158 154)"/></g><g transform="translate(-158 -124)"><circle class="c" cx="5" cy="5" r="5" transform="translate(158 154)"/></g><g transform="translate(-128 -124)"><circle class="c" cx="5" cy="5" r="5" transform="translate(158 154)"/></g><g transform="translate(-98 -124)"><circle class="c" cx="5" cy="5" r="5" transform="translate(158 154)"/></g><g transform="translate(-68 -124)"><circle class="c" cx="5" cy="5" r="5" transform="translate(158 154)"/></g><g transform="translate(-38 -124)"><circle class="c" cx="5" cy="5" r="5" transform="translate(158 154)"/></g><g transform="translate(-158 -94)"><circle class="c" cx="5" cy="5" r="5" transform="translate(158 154)"/></g><g transform="translate(-128 -94)"><circle class="c" cx="5" cy="5" r="5" transform="translate(158 154)"/></g><g transform="translate(-98 -94)"><circle class="c" cx="5" cy="5" r="5" transform="translate(158 154)"/></g><g transform="translate(-68 -94)"><circle class="c" cx="5" cy="5" r="5" transform="translate(158 154)"/></g><g transform="translate(-38 -94)"><circle class="c" cx="5" cy="5" r="5" transform="translate(158 154)"/></g><g transform="translate(-158 -64)"><circle class="c" cx="5" cy="5" r="5" transform="translate(158 154)"/></g><g transform="translate(-128 -64)"><circle class="c" cx="5" cy="5" r="5" transform="translate(158 154)"/></g><g transform="translate(-98 -64)"><circle class="c" cx="5" cy="5" r="5" transform="translate(158 154)"/></g><g transform="translate(-68 -64)"><circle class="c" cx="5" cy="5" r="5" transform="translate(158 154)"/></g><g transform="translate(-38 -64)"><circle class="c" cx="5" cy="5" r="5" transform="translate(158 154)"/></g><g transform="translate(-158 -34)"><circle class="c" cx="5" cy="5" r="5" transform="translate(158 154)"/></g><g transform="translate(-128 -34)"><circle class="c" cx="5" cy="5" r="5" transform="translate(158 154)"/></g><g transform="translate(-98 -34)"><circle class="c" cx="5" cy="5" r="5" transform="translate(158 154)"/></g><g transform="translate(-68 -34)"><circle class="c" cx="5" cy="5" r="5" transform="translate(158 154)"/></g><g transform="translate(-38 -34)"><circle class="c" cx="5" cy="5" r="5" transform="translate(158 154)"/></g></g></svg>