<svg xmlns="http://www.w3.org/2000/svg" width="24.234" height="24.234" viewBox="0 0 24.234 24.234"><defs><style>.a{fill:#fff;}</style></defs><path class="a" d="M16.661,0H7.573A7.574,7.574,0,0,0,0,7.573v9.088a7.574,7.574,0,0,0,7.573,7.573h9.088a7.574,7.574,0,0,0,7.573-7.573V7.573A7.574,7.574,0,0,0,16.661,0Zm5.3,16.661a5.307,5.307,0,0,1-5.3,5.3H7.573a5.307,5.307,0,0,1-5.3-5.3V7.573a5.307,5.307,0,0,1,5.3-5.3h9.088a5.307,5.307,0,0,1,5.3,5.3Z"/><path class="a" d="M134.058,128a6.058,6.058,0,1,0,6.058,6.058A6.059,6.059,0,0,0,134.058,128Zm0,9.845a3.786,3.786,0,1,1,3.786-3.786A3.792,3.792,0,0,1,134.058,137.845Z" transform="translate(-121.942 -121.942)"/><circle class="a" cx="0.807" cy="0.807" r="0.807" transform="translate(17.822 4.797)"/></svg>