<svg xmlns="http://www.w3.org/2000/svg" width="24.188" height="20.614" viewBox="0 0 24.188 20.614"><defs><style>.a{fill:#fff;}</style></defs><g transform="translate(0 -48)"><g transform="translate(0 48)"><path class="a" d="M24.188,50.44a9.964,9.964,0,0,1-2.857.821,5.136,5.136,0,0,0,2.181-2.875,9.634,9.634,0,0,1-3.144,1.259A4.864,4.864,0,0,0,16.745,48a5.083,5.083,0,0,0-4.955,5.2,5.608,5.608,0,0,0,.115,1.186A13.831,13.831,0,0,1,1.684,48.948a5.434,5.434,0,0,0-.679,2.629,5.28,5.28,0,0,0,2.2,4.323,4.723,4.723,0,0,1-2.24-.641v.057A5.17,5.17,0,0,0,4.94,60.427a4.731,4.731,0,0,1-1.3.171A4.186,4.186,0,0,1,2.7,60.51a5.043,5.043,0,0,0,4.633,3.623,9.672,9.672,0,0,1-6.148,2.218A8.859,8.859,0,0,1,0,66.28a13.491,13.491,0,0,0,7.607,2.334c9.125,0,14.113-7.928,14.113-14.8,0-.23-.008-.452-.018-.672A10.174,10.174,0,0,0,24.188,50.44Z" transform="translate(0 -48)"/></g></g></svg>